# xmcd CD database file generated by OrangeCD 6.4
#
# Track frame offsets:
#	150
#	13058
#	26581
#	37836
#	58979
#	79752
#	90240
#	104541
#	119158
#	134850
#	150712
#	163417
#
# Disc length: 2366 seconds
#
# Revision: 0
# Processed by: cddbd v1.5.2PL0 Copyright (c) Steve Scherf et al.
# Submitted via: OrangeCD 6.4
#
DISCID=a4093c0c
DTITLE=Evelyne Gallet - Infidèle
DYEAR=1900
DGENRE=Chanson
TTITLE0=Infidèle
TTITLE1=Roméo épouse Juliette
TTITLE2=Si j'étais Jeanne
TTITLE3=La vieille
TTITLE4=Tu dis qu'un jour
TTITLE5=Les martiens
TTITLE6=Les oiseaux
TTITLE7=La fin du monde
TTITLE8=Le prince charmant
TTITLE9=Copain
TTITLE10=Messieurs
TTITLE11=J'te suivrai pas
EXTD=
EXTT0=
EXTT1=
EXTT2=
EXTT3=
EXTT4=
EXTT5=
EXTT6=
EXTT7=
EXTT8=
EXTT9=
EXTT10=
EXTT11=
PLAYORDER=
